<svg width="30" height="31" viewBox="0 0 30 31" fill="none" xmlns="http://www.w3.org/2000/svg">
<g clip-path="url(#clip0_1_115)">
<g clip-path="url(#clip1_1_115)">
<path fill-rule="evenodd" clip-rule="evenodd" d="M18.2855 15.8224C18.0957 15.2856 17.7442 14.821 17.2794 14.4923C16.8144 14.1636 16.2592 13.9872 15.6899 13.9872V13.299H14.3136V13.9872C13.5836 13.9872 12.8835 14.2771 12.3673 14.7933C11.8511 15.3095 11.5611 16.0096 11.5611 16.7397C11.5611 17.4696 11.8511 18.1698 12.3673 18.686C12.8835 19.2021 13.5836 19.4922 14.3136 19.4922V22.2447C13.715 22.2447 13.2051 21.8628 13.0151 21.3274C12.987 21.2398 12.9415 21.1587 12.8814 21.089C12.8214 21.0193 12.7479 20.9623 12.6655 20.9215C12.5831 20.8807 12.4933 20.8568 12.4014 20.8512C12.3096 20.8457 12.2176 20.8587 12.1308 20.8893C12.0441 20.92 11.9643 20.9677 11.8964 21.0297C11.8284 21.0917 11.7736 21.1667 11.735 21.2502C11.6965 21.3338 11.6752 21.4243 11.6723 21.5163C11.6694 21.6082 11.6849 21.6998 11.718 21.7857C11.9079 22.3224 12.2594 22.7871 12.7242 23.1157C13.189 23.4444 13.7443 23.621 14.3136 23.621V24.309H15.6899V23.621C16.4199 23.621 17.12 23.3309 17.6362 22.8147C18.1524 22.2986 18.4424 21.5984 18.4424 20.8684C18.4424 20.1384 18.1524 19.4382 17.6362 18.9221C17.12 18.4059 16.4199 18.1159 15.6899 18.1159V15.3634C15.9745 15.3633 16.2521 15.4515 16.4846 15.6157C16.717 15.78 16.8928 16.0123 16.9877 16.2807C17.0484 16.4527 17.1752 16.5936 17.3398 16.6724C17.4213 16.7113 17.5097 16.7339 17.6 16.7387C17.6903 16.7435 17.7805 16.7305 17.8658 16.7004C17.951 16.6703 18.0294 16.6237 18.0967 16.5634C18.1638 16.5029 18.2185 16.4299 18.2574 16.3483C18.2964 16.2668 18.319 16.1784 18.3238 16.0881C18.3287 15.9979 18.3156 15.9076 18.2855 15.8224ZM14.3136 15.3634C13.9487 15.3634 13.5985 15.5083 13.3404 15.7665C13.0824 16.0246 12.9374 16.3746 12.9374 16.7397C12.9374 17.1046 13.0824 17.4547 13.3404 17.7128C13.5985 17.9709 13.9487 18.1159 14.3136 18.1159V15.3634ZM15.6899 22.2447C16.0549 22.2447 16.4049 22.0997 16.663 21.8416C16.9211 21.5835 17.0662 21.2334 17.0662 20.8684C17.0662 20.5034 16.9211 20.1533 16.663 19.8952C16.4049 19.6371 16.0549 19.4922 15.6899 19.4922V22.2447Z" fill="black"/>
<path fill-rule="evenodd" clip-rule="evenodd" d="M7.53767 4.78063C9.22634 3.9542 11.9967 2.97705 15.0286 2.97705C17.9972 2.97705 20.6947 3.91359 22.3745 4.72902L22.4694 4.77513C22.9759 5.02561 23.3846 5.26233 23.6722 5.45431L21.1302 9.1702C26.9904 15.161 31.5169 27.7476 15.0286 27.7476C-1.4596 27.7476 2.9451 15.3896 8.8561 9.1702L6.33069 5.45431C6.52544 5.32701 6.77248 5.17906 7.06699 5.02217C7.21288 4.94372 7.36977 4.86252 7.53767 4.78063ZM19.4967 9.12066L21.5315 6.14588C19.6391 6.28213 17.3876 6.72666 15.2199 7.35424C13.6716 7.80152 11.9513 7.73339 10.3583 7.43956C9.95684 7.36514 9.55819 7.27655 9.16307 7.17394L10.4842 9.11929C13.3159 10.1274 16.6643 10.1274 19.4967 9.12066ZM9.68948 10.2918C13.0028 11.5718 16.985 11.5718 20.2984 10.2905C21.6814 11.7484 22.8383 13.4052 23.7307 15.2058C24.6611 17.1036 25.1675 19.0008 25.085 20.6358C25.0051 22.2137 24.3845 23.5617 22.9669 24.5636C21.4895 25.6075 19.0047 26.3713 15.028 26.3713C11.0472 26.3713 8.5506 25.6206 7.05943 24.5884C5.63156 23.5996 5.00468 22.2694 4.9159 20.7129C4.82301 19.0958 5.31846 17.2083 6.24537 15.2973C7.12961 13.4751 8.36343 11.7211 9.68948 10.2918ZM8.8981 5.67177C9.4486 5.83554 10.0239 5.97798 10.6074 6.08601C12.0869 6.35851 13.5705 6.39843 14.8367 6.03165C16.3122 5.60181 17.8129 5.26375 19.3302 5.01942C18.064 4.63819 16.5831 4.35331 15.028 4.35331C12.6574 4.35331 10.4464 5.0146 8.8981 5.67177Z" fill="black"/>
</g>
</g>
<defs>
<clipPath id="clip0_1_115">
<rect width="30" height="30" fill="white" transform="translate(0 0.330017)"/>
</clipPath>
<clipPath id="clip1_1_115">
<rect width="30" height="30" fill="white" transform="translate(0 0.330017)"/>
</clipPath>
</defs>
</svg>
