<svg width="30" height="31" viewBox="0 0 30 31" fill="none" xmlns="http://www.w3.org/2000/svg">
<g clip-path="url(#clip0_1_108)">
<g clip-path="url(#clip1_1_108)">
<path d="M14.5312 15.14C13.5114 15.14 12.5145 14.8651 11.6666 14.35C10.8186 13.8349 10.1577 13.1028 9.76752 12.2463C9.37724 11.3898 9.27511 10.4474 9.47409 9.53808C9.67302 8.62875 10.1641 7.79351 10.8852 7.13795C11.6063 6.4824 12.5251 6.03595 13.5253 5.85509C14.5255 5.67422 15.5623 5.76705 16.5045 6.12183C17.4467 6.47661 18.2519 7.07743 18.8185 7.84828C19.3851 8.61914 19.6875 9.52542 19.6875 10.4525C19.6859 11.6953 19.1421 12.8866 18.1755 13.7655C17.2088 14.6442 15.8983 15.1385 14.5312 15.14ZM14.5312 7.64001C13.9193 7.64001 13.3212 7.80497 12.8124 8.114C12.3036 8.42305 11.9072 8.8623 11.673 9.37622C11.4388 9.89011 11.3776 10.4556 11.4969 11.0012C11.6163 11.5468 11.9109 12.048 12.3436 12.4412C12.7763 12.8346 13.3276 13.1025 13.9277 13.211C14.5278 13.3195 15.1499 13.2638 15.7152 13.0509C16.2805 12.8381 16.7636 12.4776 17.1036 12.015C17.4436 11.5526 17.625 11.0087 17.625 10.4525C17.6241 9.70683 17.298 8.99189 16.718 8.4646C16.1379 7.93731 15.3515 7.64076 14.5312 7.64001Z" fill="black"/>
<path d="M14.5313 28.265L6.26302 18.6047C6.14814 18.4597 6.03444 18.3136 5.92195 18.1668C4.50958 16.3237 3.74659 14.0724 3.75001 11.7584C3.75001 8.92559 4.88589 6.20889 6.90776 4.20585C8.92964 2.20281 11.6719 1.07751 14.5313 1.07751C17.3906 1.07751 20.1329 2.20281 22.1547 4.20585C24.1766 6.20889 25.3125 8.92559 25.3125 11.7584C25.3159 14.0714 24.5532 16.3215 23.1415 18.1639L23.1406 18.1668C23.1406 18.1668 22.8465 18.5493 22.8024 18.6008L14.5313 28.265ZM7.48719 16.9967C7.48719 16.9967 7.71555 17.2958 7.7675 17.3599L14.5313 25.2628L21.3038 17.3492C21.347 17.2958 21.5773 16.9938 21.5773 16.9938C22.731 15.488 23.3545 13.6488 23.3523 11.7584C23.3523 9.44063 22.4229 7.21788 20.7686 5.57902C19.1144 3.94017 16.8707 3.01948 14.5313 3.01948C12.1918 3.01948 9.9481 3.94017 8.29386 5.57902C6.63959 7.21788 5.71024 9.44063 5.71024 11.7584C5.70819 13.65 6.33239 15.4902 7.48719 16.9967Z" fill="black"/>
</g>
</g>
<defs>
<clipPath id="clip0_1_108">
<rect width="30" height="30" fill="white" transform="translate(0 0.140015)"/>
</clipPath>
<clipPath id="clip1_1_108">
<rect width="30" height="30" fill="white" transform="translate(0 0.140015)"/>
</clipPath>
</defs>
</svg>
