<svg width="30" height="31" viewBox="0 0 30 31" fill="none" xmlns="http://www.w3.org/2000/svg">
<g clip-path="url(#clip0_1_122)">
<g clip-path="url(#clip1_1_122)">
<path d="M27.3529 21.6553L20.0862 28.7553L16.5768 25.3198L17.751 24.1746L20.0862 26.4395L26.1788 20.5101L27.3529 21.6553ZM14.2416 8.05312V14.5678H19.2512V16.1966H12.5716V8.05312H14.2416ZM13.4066 25.9687C13.5458 25.9687 13.6849 25.9645 13.8241 25.9559C13.9632 25.9475 14.1024 25.939 14.2416 25.9305L15.7288 27.3811C15.3375 27.449 14.9504 27.4999 14.5677 27.5338C14.185 27.5677 13.798 27.5889 13.4066 27.5974C12.2586 27.5974 11.154 27.4532 10.0929 27.1648C9.03182 26.8763 8.0316 26.465 7.09228 25.9305C6.15296 25.3961 5.30931 24.7599 4.56133 24.0219C3.81335 23.2839 3.16104 22.4569 2.60441 21.5407C2.04778 20.6246 1.62595 19.6533 1.33894 18.6268C1.05192 17.6005 0.899715 16.5189 0.882324 15.3823C0.882324 14.2625 1.03018 13.1852 1.32589 12.1503C1.6216 11.1154 2.04343 10.1398 2.59136 9.22374C3.1393 8.30761 3.79161 7.48478 4.54829 6.75526C5.30496 6.02574 6.15296 5.38953 7.09228 4.84664C8.0316 4.30374 9.02741 3.89233 10.0799 3.61239C11.1323 3.33247 12.2411 3.18402 13.4066 3.16705C14.5546 3.16705 15.6593 3.31126 16.7203 3.59967C17.7814 3.88809 18.7816 4.2995 19.7209 4.83392C20.6603 5.36833 21.5039 6.00453 22.2519 6.74253C22.9998 7.48053 23.6521 8.30761 24.2088 9.22374C24.7654 10.1398 25.1873 11.1111 25.4743 12.1376C25.7613 13.164 25.9135 14.2455 25.9309 15.3823C25.9309 15.8063 25.9048 16.2347 25.8526 16.6673L23.6609 18.8177C24.0609 17.6895 24.261 16.5443 24.261 15.3823C24.261 14.4067 24.1306 13.4693 23.8696 12.5702C23.6086 11.671 23.2434 10.8313 22.7738 10.0508C22.3041 9.27039 21.7388 8.55361 21.0777 7.90044C20.4167 7.24726 19.6861 6.69588 18.8859 6.2463C18.0858 5.79671 17.2204 5.44044 16.2898 5.17747C15.3592 4.9145 14.3981 4.78726 13.4066 4.79574C12.4064 4.79574 11.4453 4.92298 10.5234 5.17747C9.60147 5.43195 8.74044 5.78822 7.94027 6.2463C7.14011 6.70436 6.40518 7.25574 5.73549 7.90044C5.06578 8.54512 4.50045 9.25767 4.03949 10.0381C3.57852 10.8185 3.21324 11.6625 2.94362 12.5702C2.67399 13.4779 2.54353 14.4152 2.55223 15.3823C2.55223 16.3577 2.68269 17.2951 2.94362 18.1942C3.20454 19.0934 3.56983 19.9333 4.03949 20.7136C4.50915 21.4941 5.07448 22.2109 5.73549 22.864C6.39648 23.5172 7.12707 24.0686 7.92723 24.5181C8.7274 24.9677 9.59282 25.324 10.5234 25.5869C11.4541 25.85 12.4151 25.9772 13.4066 25.9687Z" fill="black"/>
</g>
</g>
<defs>
<clipPath id="clip0_1_122">
<rect width="30" height="30" fill="white" transform="translate(0 0.52002)"/>
</clipPath>
<clipPath id="clip1_1_122">
<rect width="30" height="30" fill="white" transform="translate(0 0.52002)"/>
</clipPath>
</defs>
</svg>
