<svg width="30" height="31" viewBox="0 0 30 31" fill="none" xmlns="http://www.w3.org/2000/svg">
<g clip-path="url(#clip0_1_140)">
<g clip-path="url(#clip1_1_140)">
<path d="M25.3875 16.105V23.305C25.3312 25.18 20.7 26.6425 15 26.6425C9.30001 26.6425 4.66874 25.155 4.61249 23.305V16.105M8.90621 4.36752C9.34377 5.37377 10.2499 6.64252 10.2187 7.38002C10.2286 7.55526 10.2015 7.73061 10.1391 7.89467C10.0767 8.05873 9.98048 8.20781 9.85668 8.33222C9.73289 8.45662 9.5843 8.55356 9.42054 8.61671C9.25677 8.67986 9.08154 8.70783 8.90621 8.69877C8.73095 8.70783 8.55573 8.67986 8.39197 8.61671C8.22821 8.55356 8.07959 8.45662 7.95577 8.33222C7.83196 8.20781 7.73573 8.05873 7.67335 7.89467C7.61098 7.73061 7.58385 7.55526 7.59374 7.38002C7.56248 6.64252 8.46873 5.37377 8.91248 4.36752H8.90621ZM15 3.51752C15.4437 4.52377 16.35 5.79252 16.3188 6.53002C16.3296 6.70632 16.303 6.88293 16.2407 7.04819C16.1783 7.21346 16.0817 7.36364 15.9571 7.48884C15.8325 7.61404 15.6828 7.71139 15.5178 7.77452C15.3528 7.83763 15.1763 7.86507 15 7.85502C14.8251 7.85934 14.6511 7.82798 14.4888 7.76284C14.3264 7.6977 14.1791 7.60016 14.0556 7.47616C13.9322 7.35216 13.8354 7.20431 13.771 7.04164C13.7067 6.87897 13.6761 6.70488 13.6812 6.53002C13.6812 5.79252 14.5563 4.52377 15 3.51752ZM21.0499 4.36127C21.4938 5.36752 22.3938 6.63627 22.3687 7.37377C22.3748 7.54887 22.3449 7.72336 22.2808 7.88644C22.2168 8.04953 22.12 8.19775 21.9964 8.32193C21.8727 8.44611 21.725 8.54363 21.5622 8.60845C21.3994 8.67326 21.2251 8.70401 21.0499 8.69877C20.8749 8.70401 20.7005 8.67326 20.5377 8.60845C20.3749 8.54363 20.2272 8.44611 20.1036 8.32193C19.98 8.19775 19.8832 8.04953 19.8192 7.88644C19.7551 7.72336 19.7252 7.54887 19.7313 7.37377C19.7313 6.63627 20.6062 5.36752 21.0499 4.36127Z" stroke="black" stroke-width="0.882353" stroke-linecap="round" stroke-linejoin="round"/>
<path d="M25.3938 16.1363C25.3312 17.9862 20.7 19.455 15 19.455C9.30003 19.455 4.66876 17.9862 4.61251 16.1363V16.105M4.60626 16.0988C4.66251 14.2238 9.29376 12.7613 14.9938 12.7613C20.6938 12.7613 25.325 14.2487 25.3813 16.0988V16.13M14.9812 9.10498V14.0363M8.90623 9.94877V15.08M21.05 9.94877V15.08" stroke="black" stroke-width="0.882353" stroke-linecap="round" stroke-linejoin="round"/>
</g>
</g>
<defs>
<clipPath id="clip0_1_140">
<rect width="30" height="30" fill="white" transform="translate(0 0.0800171)"/>
</clipPath>
<clipPath id="clip1_1_140">
<rect width="30" height="30" fill="white" transform="translate(0 0.0800171)"/>
</clipPath>
</defs>
</svg>
