<svg width="30" height="31" viewBox="0 0 30 31" fill="none" xmlns="http://www.w3.org/2000/svg">
<g clip-path="url(#clip0_1_134)">
<g clip-path="url(#clip1_1_134)">
<path d="M4.37509 10.8901C4.37534 9.705 4.68193 8.54007 5.26512 7.5084C5.84831 6.47671 6.68827 5.61328 7.70352 5.00193C8.71876 4.39057 9.87481 4.05205 11.0595 4.01918C12.2441 3.98632 13.4172 4.26025 14.4647 4.81437C15.5123 5.36851 16.3988 6.18404 17.0383 7.1818C17.6778 8.17957 18.0485 9.3257 18.1144 10.509C18.1804 11.6922 17.9393 12.8725 17.4147 13.9351C16.89 14.9978 16.0997 15.9068 15.12 16.5739C17.2295 17.3475 19.059 18.7348 20.3734 20.557C21.6878 22.3793 22.4267 24.5531 22.495 26.7989C22.4922 27.041 22.3958 27.2726 22.2262 27.4454C22.0564 27.6181 21.8267 27.7186 21.5845 27.7259C21.3425 27.7331 21.107 27.6466 20.9273 27.4844C20.7475 27.322 20.6375 27.0966 20.62 26.8551C20.5457 24.4194 19.5258 22.1084 17.7765 20.4119C16.0274 18.7153 13.6863 17.7665 11.2495 17.7665C8.81266 17.7665 6.47158 18.7153 4.72238 20.4119C2.97317 22.1084 1.95328 24.4194 1.87884 26.8551C1.86633 27.0999 1.75844 27.33 1.57829 27.4963C1.39814 27.6625 1.16007 27.7515 0.915059 27.7444C0.670053 27.7371 0.437608 27.6343 0.267519 27.4578C0.097431 27.2813 0.00322854 27.0453 0.00509308 26.8001C0.0732823 24.5541 0.812102 22.38 2.12646 20.5575C3.44081 18.735 5.27052 17.3476 7.38009 16.5739C6.45363 15.9434 5.69546 15.0959 5.17168 14.1051C4.64791 13.1145 4.37443 12.0107 4.37509 10.8901ZM11.2501 5.8901C9.924 5.8901 8.65224 6.41688 7.71456 7.35457C6.77688 8.29225 6.25009 9.56402 6.25009 10.8901C6.25009 12.2162 6.77688 13.488 7.71456 14.4256C8.65224 15.3633 9.924 15.8901 11.2501 15.8901C12.5762 15.8901 13.8479 15.3633 14.7857 14.4256C15.7233 13.488 16.25 12.2162 16.25 10.8901C16.25 9.56402 15.7233 8.29225 14.7857 7.35457C13.8479 6.41688 12.5762 5.8901 11.2501 5.8901ZM21.6127 10.8901C21.4277 10.8901 21.2477 10.9026 21.0702 10.9276C20.9462 10.9498 20.819 10.9468 20.6963 10.9188C20.5735 10.8908 20.4577 10.8383 20.3557 10.7646C20.2537 10.6908 20.1675 10.5973 20.1024 10.4895C20.0373 10.3818 19.9945 10.262 19.9768 10.1374C19.959 10.0127 19.9664 9.88578 19.9988 9.76411C20.031 9.64243 20.0875 9.52851 20.1649 9.42913C20.2422 9.32976 20.3388 9.24698 20.4487 9.18573C20.5587 9.12447 20.6799 9.086 20.805 9.0726C22.0483 8.89286 23.316 9.1316 24.4087 9.75126C25.5013 10.3709 26.3569 11.3363 26.8409 12.4955C27.3248 13.6548 27.4094 14.9419 27.0817 16.1545C26.7538 17.3671 26.0322 18.4364 25.03 19.1939C26.503 19.8534 27.7538 20.9251 28.6312 22.2796C29.5087 23.6341 29.9754 25.2136 29.975 26.8276C29.975 27.0763 29.8763 27.3148 29.7005 27.4905C29.5247 27.6664 29.2863 27.7651 29.0375 27.7651C28.7889 27.7651 28.5505 27.6664 28.3747 27.4905C28.1989 27.3148 28.1 27.0763 28.1 26.8276C28.0999 25.4328 27.6505 24.0751 26.8184 22.9558C25.9863 21.8363 24.8157 21.0146 23.48 20.6126L22.8125 20.4126V18.3176L23.325 18.0564C24.0848 17.6715 24.6927 17.0419 25.0505 16.2691C25.4083 15.4964 25.4953 14.6256 25.2974 13.7973C25.0994 12.969 24.6282 12.2316 23.9595 11.7041C23.291 11.1766 22.4642 10.8899 21.6127 10.8901Z" fill="#101010"/>
</g>
</g>
<defs>
<clipPath id="clip0_1_134">
<rect width="30" height="30" fill="white" transform="translate(0 0.890015)"/>
</clipPath>
<clipPath id="clip1_1_134">
<rect width="30" height="30" fill="white" transform="translate(0 0.890015)"/>
</clipPath>
</defs>
</svg>
