<svg width="67" height="67" viewBox="0 0 67 67" fill="none" xmlns="http://www.w3.org/2000/svg">
<g clip-path="url(#clip0_1_285)">
<g clip-path="url(#clip1_1_285)">
<g clip-path="url(#clip2_1_285)">
<path d="M66.9799 33.5C66.9799 15.2746 52.2053 0.5 33.9799 0.5C15.7545 0.5 0.979919 15.2746 0.979919 33.5C0.979919 51.7254 15.7545 66.5 33.9799 66.5C52.2053 66.5 66.9799 51.7254 66.9799 33.5Z" fill="#E1905D"/>
<path d="M43.2299 24.5H25.3549C23.8424 24.5 22.6049 25.7462 22.6049 27.2692V39.7308C22.6049 40.4652 22.8946 41.1696 23.4104 41.6889C23.9261 42.2082 24.6256 42.5 25.3549 42.5H43.2299C44.7562 42.5 45.9799 41.2677 45.9799 39.7308V27.2692C45.9799 26.5348 45.6902 25.8304 45.1744 25.3111C44.6587 24.7918 43.9592 24.5 43.2299 24.5ZM43.2299 39.7308H25.3549V29.5815L34.2924 34.1923L43.2299 29.5815V39.7308ZM34.2924 31.8523L25.3549 27.2692H43.2299L34.2924 31.8523ZM19.8549 39.7308C19.8549 39.9662 19.8962 40.1877 19.9237 40.4231H14.3549C13.5959 40.4231 12.9799 39.8 12.9799 39.0385C12.9799 38.2769 13.5959 37.6538 14.3549 37.6538H19.8549V39.7308ZM17.1049 26.5769H19.9237C19.8962 26.8123 19.8549 27.0338 19.8549 27.2692V29.3462H17.1049C16.3486 29.3462 15.7299 28.7231 15.7299 27.9615C15.7299 27.2 16.3486 26.5769 17.1049 26.5769ZM14.3549 33.5C14.3549 32.7385 14.9736 32.1154 15.7299 32.1154H19.8549V34.8846H15.7299C14.9736 34.8846 14.3549 34.2615 14.3549 33.5Z" fill="#F8F8F8"/>
</g>
</g>
</g>
<defs>
<clipPath id="clip0_1_285">
<rect width="66" height="66" fill="white" transform="translate(0.979919 0.5)"/>
</clipPath>
<clipPath id="clip1_1_285">
<rect width="66" height="66" fill="white" transform="translate(0.979919 0.5)"/>
</clipPath>
<clipPath id="clip2_1_285">
<rect width="66" height="66" fill="white" transform="translate(0.979919 0.5)"/>
</clipPath>
</defs>
</svg>
